<?xml version="1.0" encoding="UTF-8" standalone="no"?>
<svg xmlns="http://www.w3.org/2000/svg" viewBox="0 0 43.06 47.28">
    <defs>
        <style>.cls-1{fill:none;stroke:#fff;stroke-linecap:round;stroke-linejoin:round;stroke-width:2px;}</style>
    </defs>
    <title>Asset 21</title>
    <g id="Layer_2" data-name="Layer 2">
        <g id="Layer_2-2" data-name="Layer 2">
            <line class="cls-1" x1="21.44" y1="26.28" x2="21.44" y2="46.28"/>
            <path class="cls-1" d="M22.25,1.3a13.1,13.1,0,0,1,3.68,7.58,1,1,0,0,0,1.85.35c.34-.59.63-1.18.87-1.71a1,1,0,0,1,1.81,0,12.57,12.57,0,0,1,.21,8.8,1,1,0,0,0,1.62,1l2.31-2.06a1,1,0,0,1,1.65.8l-.11,2.29a1,1,0,0,0,1.5.9l2.91-1.72A1,1,0,0,1,42,18.81l-2.57,5.41a1,1,0,0,0,.9,1.42h0a1,1,0,0,1,.58,1.8L36,30.94a1,1,0,0,0-.21,1.4l1.77,2.41a1,1,0,0,1-1,1.56L31.34,35a1,1,0,0,0-1.23.88l-.22,2.59a1,1,0,0,1-1.31.87,21.68,21.68,0,0,1-6.44-3.52,1,1,0,0,0-1.23,0,21.46,21.46,0,0,1-6.43,3.52,1,1,0,0,1-1.32-.87l-.22-2.59A1,1,0,0,0,11.71,35L6.5,36.31a1,1,0,0,1-1-1.56l1.77-2.41A1,1,0,0,0,7,30.94l-4.83-3.5a1,1,0,0,1,.58-1.8h0a1,1,0,0,0,.9-1.42L1.1,18.81a1,1,0,0,1,1.41-1.28l2.91,1.72a1,1,0,0,0,1.5-.9L6.8,16.06a1,1,0,0,1,1.66-.8l2.31,2.06a1,1,0,0,0,1.62-1,12.57,12.57,0,0,1,.21-8.8,1,1,0,0,1,1.81,0c.24.53.53,1.12.87,1.71a1,1,0,0,0,1.85-.35A13.1,13.1,0,0,1,20.81,1.3,1,1,0,0,1,22.25,1.3Z"/>
        </g>
    </g>
</svg>