<?xml version="1.0" encoding="UTF-8" standalone="no"?>
<svg xmlns="http://www.w3.org/2000/svg" viewBox="0 0 41.8 47.76">
    <defs>
        <style>.cls-1{fill:none;stroke:#fff;stroke-linecap:round;stroke-linejoin:round;stroke-width:2px;}</style>
    </defs>
    <title>Asset 1</title>
    <g id="Layer_2" data-name="Layer 2">
        <g id="Layer_2-2" data-name="Layer 2">
            <line class="cls-1" x1="20.95" y1="27.76" x2="20.95" y2="46.76"/>
            <line class="cls-1" x1="32.87" y1="33.54" x2="20.9" y2="40.05"/>
            <path class="cls-1" d="M34.25,38c-4,2.2-8.93,1.34-10.52,1a.49.49,0,0,1-.35-.65c.55-1.53,2.48-6.11,6.52-8.31s8.94-1.34,10.52-1a.5.5,0,0,1,.36.65C40.22,31.19,38.29,35.77,34.25,38Z"/>
            <line class="cls-1" x1="8.94" y1="33.54" x2="20.9" y2="40.05"/>
            <path class="cls-1" d="M7.55,38c4.05,2.2,8.94,1.34,10.52,1a.5.5,0,0,0,.36-.65C17.88,36.76,16,32.18,11.9,30S3,28.64,1.38,29a.49.49,0,0,0-.35.65C1.58,31.19,3.51,35.77,7.55,38Z"/>
            <path class="cls-1" d="M10.18,10.06S7.3,26.72,21.29,26.72C21.29,26.72,26.53,8.11,10.18,10.06Z"/>
            <path class="cls-1" d="M20.77,14.35S26.9,9.27,32.22,9.53c0,0,3.16,17.19-10.93,17.19"/>
            <path class="cls-1" d="M27.69,10S26.35,2.88,21,1c-5.37,1.88-6.71,9-6.71,9"/>
        </g>
    </g>
</svg>