<?xml version="1.0" standalone="no"?>
<!DOCTYPE svg PUBLIC "-//W3C//DTD SVG 20010904//EN"
 "http://www.w3.org/TR/2001/REC-SVG-20010904/DTD/svg10.dtd">
<svg version="1.0" xmlns="http://www.w3.org/2000/svg"
 width="700.000000pt" height="700.000000pt" viewBox="0 0 700.000000 700.000000"
 preserveAspectRatio="xMidYMid meet">
<metadata>
Created by potrace 1.14, written by Peter Selinger 2001-2017
</metadata>
<g transform="translate(0.000000,700.000000) scale(0.100000,-0.100000)"
fill="#000000" stroke="none">
<path d="M6055 6339 c-22 -4 -53 -10 -70 -13 -16 -3 -100 -19 -185 -35 -128
-25 -596 -112 -677 -127 -13 -2 -33 -6 -45 -8 -40 -8 -352 -66 -383 -72 -16
-3 -77 -14 -135 -26 -58 -11 -116 -22 -130 -24 -14 -3 -61 -12 -105 -20 -204
-39 -293 -55 -325 -60 -19 -3 -51 -9 -70 -14 -19 -5 -53 -11 -75 -14 -22 -4
-51 -8 -65 -11 -47 -10 -75 -15 -215 -41 -77 -14 -142 -27 -145 -29 -3 -2 -30
-6 -60 -10 -30 -4 -58 -9 -61 -11 -3 -2 -21 -6 -40 -9 -19 -3 -72 -13 -119
-21 -47 -9 -96 -18 -110 -20 -14 -2 -36 -7 -50 -10 -14 -3 -36 -8 -50 -10 -14
-3 -63 -12 -110 -20 -47 -9 -96 -18 -110 -20 -14 -3 -32 -7 -40 -9 -8 -3 -35
-7 -59 -10 -24 -3 -53 -11 -65 -17 -11 -6 -22 -10 -24 -9 -6 5 -67 -42 -85
-65 -42 -57 -42 -44 -41 -1742 0 -892 -2 -1622 -4 -1622 -2 0 -36 15 -76 34
-118 56 -137 63 -246 90 -133 32 -188 39 -325 40 -518 7 -970 -288 -1075 -699
-80 -313 70 -656 373 -849 147 -94 324 -161 482 -182 28 -3 53 -8 57 -11 11
-6 267 -5 313 1 104 16 121 19 205 41 72 18 237 86 279 114 14 10 52 35 84 56
83 54 199 175 254 262 53 86 98 210 110 303 4 36 8 917 8 1957 -1 1773 0 1893
16 1898 9 3 41 10 71 15 29 5 67 12 83 15 17 3 68 13 115 21 83 16 99 19 150
29 26 5 126 24 170 31 40 7 193 36 215 40 11 2 34 6 50 9 17 3 100 19 185 35
290 54 375 70 415 76 22 3 42 7 45 9 3 2 26 6 50 10 25 3 52 8 60 10 8 2 31 7
50 10 19 3 80 15 135 25 55 11 116 22 135 25 19 3 53 10 75 15 22 5 60 12 85
15 25 4 99 17 165 30 106 21 191 36 270 49 14 3 33 7 43 10 9 3 33 7 52 10 50
8 82 14 199 37 112 22 174 32 206 33 20 1 20 -6 21 -1474 1 -811 -1 -1478 -2
-1481 -2 -4 -33 9 -68 27 -272 145 -661 175 -981 78 -405 -124 -693 -451 -697
-793 -3 -223 73 -402 242 -571 174 -174 413 -285 681 -317 82 -9 278 -9 349 1
448 61 799 334 891 692 l22 89 1 2030 c0 1593 -3 2038 -13 2067 -15 46 -81
113 -124 127 -45 14 -105 18 -152 10z"/>
</g>
</svg>
